<svg width="77" height="77" viewBox="0 0 77 77" fill="none" xmlns="http://www.w3.org/2000/svg">
<path d="M75.162 38.7915C75.162 51.0586 69.1675 61.9352 59.9595 68.6404C59.8822 68.7022 59.7895 68.764 59.7123 68.8103C59.1252 69.2429 58.5227 69.6446 57.9047 70.0308C56.8386 70.6952 55.7417 71.3132 54.6139 71.8694C51.3076 73.507 47.7233 74.6657 43.9381 75.2374C43.66 75.2837 43.3819 75.3146 43.1039 75.361C42.9957 75.3764 42.8876 75.3919 42.7794 75.4073C42.3777 75.4537 41.976 75.5 41.5743 75.5309C40.4774 75.6236 39.365 75.6854 38.2526 75.6854C37.9128 75.6854 37.5729 75.6854 37.2484 75.67C37.063 75.67 36.8622 75.6545 36.6768 75.6545C36.5995 75.6545 36.5223 75.6545 36.4605 75.6391C30.7441 75.361 25.3676 73.7851 20.64 71.205C20.2074 70.9733 19.7902 70.7261 19.3731 70.4789C18.6779 70.0617 17.9981 69.6292 17.3337 69.1657C17.2256 69.1039 17.1329 69.0266 17.0402 68.9648C7.56953 62.2905 1.38965 51.2594 1.38965 38.7915C1.38965 18.4288 17.9054 1.91309 38.2681 1.91309C58.6308 1.91309 75.162 18.4288 75.162 38.7915Z" fill="black"/>
<path d="M24.1158 59.4169C24.1158 59.4169 30.3054 66.9194 31.8658 69.6385C29.7029 67.1665 23.3897 63.0476 23.3897 63.0476L27.9958 70.4943L27.1903 73.9923L20.6551 71.2204C20.2225 70.9887 19.8053 70.7415 19.3882 70.4943C19.4345 70.3553 19.4809 70.2162 19.5427 70.0772C20.377 67.7288 21.0722 65.674 21.134 65.2105C21.2885 64.0054 21.6129 59.2624 22.0301 57.9028C22.2 57.3621 22.4472 56.9449 22.6944 56.6668C23.0652 56.2342 23.4051 56.0643 23.4051 56.0643C23.4051 56.0643 24.6102 60.0658 27.1903 62.1669C24.3784 60.0967 24.1158 59.4169 24.1158 59.4169Z" fill="#3CBD0E"/>
<path d="M56.8847 63.0939C57.1473 65.3496 57.5027 67.7443 57.9044 70.0308C56.8384 70.6952 55.7414 71.3131 54.6136 71.8693C54.042 71.2204 53.4085 70.5407 52.7287 69.8763C46.3635 63.6192 45.7455 60.5447 47.4295 56.0334C48.8972 55.5081 50.3649 54.9983 51.8326 54.4884C51.5082 55.3999 51.1683 56.7904 51.4001 58.3817C51.6782 60.3747 52.4815 60.3439 52.9141 62.6459C53.2695 64.5307 52.9141 65.6122 53.7793 67.3735C54.0265 67.8833 54.2892 68.2695 54.4745 68.5167C54.4745 68.5167 54.4745 68.5167 54.1038 67.358C53.733 66.1993 54.7835 63.3565 53.5012 60.5756C52.2189 57.7947 52.8832 54.1794 53.6248 53.7468C54.5209 53.237 56.792 53.0516 56.792 53.0516C56.792 53.0516 55.9268 54.6738 56.8847 63.0939Z" fill="#3CBD0E"/>
<path d="M43.5674 26.9725L55.8653 32.488C55.8653 32.488 56.1898 34.821 56.3288 35.9024C56.4679 36.9839 55.6491 32.9361 53.0226 32.488C51.2304 33.5695 50.288 34.6665 50.288 34.6665L47.2444 36.5822L44.7416 35.1917L43.5674 26.9725Z" fill="#145B12"/>
<path d="M44.278 40.2438C44.278 40.2438 45.1123 42.0051 48.2486 43.2719C47.2135 41.7579 46.0084 39.6104 44.9887 38.7452C43.969 37.88 42.5786 37.6173 42.5786 37.6173L42.3159 38.2662L44.278 40.2438Z" fill="#3CBD0E"/>
<path d="M46.5487 29.5681C44.0768 27.0961 43.4433 26.9107 43.4433 26.9107C43.4433 26.9107 39.1638 26.4163 37.1553 31.2521C36.1047 34.6665 38.9938 36.5668 38.9938 36.5668L44.2776 40.2438L42.7481 38.1426C42.7481 38.1426 44.2467 37.8027 45.2509 38.4053C46.2552 39.0078 46.7959 40.3828 48.8198 40.2438C50.8437 40.1047 48.7426 37.401 51.4308 36.0106C54.1191 34.6201 53.0067 32.488 53.0067 32.488C53.0067 32.488 49.5305 32.967 48.7426 35.0063C47.9237 34.5583 46.9041 34.6974 46.9041 34.6974C46.9041 34.6974 47.8774 33.5695 47.8465 32.0864C47.831 30.6186 46.5487 29.5681 46.5487 29.5681Z" fill="#3CBD0E"/>
<path d="M22.2314 46.8099C22.0769 46.7636 17.1175 45.1414 15.0782 44.2916C13.4096 43.5964 13.1933 42.1287 13.1315 40.9545C13.116 40.6764 13.1006 40.4138 13.0851 40.1666C12.9924 38.946 14.0739 37.7255 15.2481 35.3771C16.4377 33.0288 16.5304 30.6804 16.5304 30.6804L18.9406 27.6832L19.6049 27.745L20.81 27.8531C20.81 27.8531 18.5852 30.7422 18.2762 32.8279C18.1372 33.7858 17.7819 35.8097 18.0136 36.4123C18.508 37.7255 19.883 37.8955 20.5783 38.7606C19.9139 38.1272 19.0024 38.5289 19.0024 38.5289L17.6583 37.2466L18.647 39.2396C18.6161 39.2087 18.1526 38.8688 16.0515 39.1932C15.1554 39.3323 14.8001 40.0584 14.6919 40.8618C14.5065 42.2368 15.2636 43.5655 16.515 44.1526L22.2314 46.8099Z" fill="#3CBD0E"/>
<path d="M48.0718 44.2144C52.6674 50.5303 56.1589 50.9041 58.0437 50.1316C59.9441 49.3591 61.4736 46.8254 61.6744 44.2144C61.8753 41.6034 58.9089 40.491 58.9089 40.491C58.9089 40.491 57.4567 38.807 57.4876 36.196C57.5648 35.408 56.7614 34.7746 56.7614 34.7746C56.7614 34.7746 56.746 37.5555 56.9159 38.9151C56.9623 39.3168 57.0086 39.7185 57.0241 40.1356C57.0859 41.6806 57.4567 43.9826 56.2361 44.7706C55.1856 44.7242 55.0929 42.8702 51.4622 42.793C52.4819 43.6273 53.9496 44.9869 54.2277 46.3464C54.3822 48.8956 48.0718 44.2144 48.0718 44.2144Z" fill="#3CBD0E"/>
<path d="M22.2312 32.0709C24.6877 32.3027 25.4292 34.4965 25.4756 35.9642C25.4756 36.4586 25.4756 36.5977 25.4756 36.5977C25.4756 36.5977 29.9406 40.6455 30.3423 41.2017C30.3886 41.2635 30.4195 41.3562 30.4504 41.4643C30.6512 42.484 29.4771 43.2101 28.6273 42.6076L23.7916 39.2241L22.0767 38.8533C22.0767 38.8533 23.0963 41.4798 27.3914 43.3492C31.6864 45.2186 32.5052 44.3689 33.4013 43.5655C34.0038 43.0402 33.8957 40.8154 33.8339 39.9503C33.8184 39.734 33.6948 39.5486 33.5094 39.4404C32.4434 38.8688 28.8591 36.8603 28.2256 35.3153C27.4841 33.5077 26.0472 30.9276 24.6259 30.4487C23.2199 29.9543 22.2312 32.0709 22.2312 32.0709Z" fill="#3CBD0E"/>
<path d="M24.4248 31.4375C20.5624 32.7198 19.7899 34.7746 19.6972 35.5934C19.5891 36.4123 19.9908 37.7255 24.1158 38.5443C20.4851 38.5443 18.4612 36.8603 18.6003 35.8561C18.7393 34.8518 17.8433 32.3799 20.3307 30.9122C20.825 29.4599 23.4669 23.5736 24.0077 22.971C24.5639 22.353 27.2058 20.2055 27.7774 19.9583C28.3491 19.6957 29.4769 20.2673 29.4769 20.2673C29.4769 20.2673 25.2437 24.2688 24.672 26.1382C24.1004 28.0076 25.2746 29.9388 25.0583 30.8504C24.8265 31.7465 24.4248 31.4375 24.4248 31.4375Z" fill="#3CBD0E"/>
<path d="M41.3427 15.2616L39.5041 16.5749L38.9634 16.9611C38.9634 16.9611 36.8931 17.0229 36.1052 19.0314C35.3173 21.0398 38.8707 23.2182 37.3103 24.7323C35.0546 26.8798 33.6951 25.6593 30.5433 25.4584C27.3916 25.2576 27.7624 27.3279 28.0405 28.9346C27.7469 28.9192 27.4997 28.7956 27.268 28.6256C26.3719 27.9458 25.9702 26.4009 25.9702 26.4009C25.9702 26.4009 25.8466 27.127 26.1092 28.9037C26.3564 30.6804 29.7245 30.6341 30.2961 31.8083C29.6318 30.9122 27.4534 30.7268 26.2174 30.0161C25.0432 29.3518 25.5994 26.6017 25.7076 26.0301C25.723 25.9992 25.723 25.9683 25.723 25.9528C25.7848 25.6129 27.9941 23.2182 29.6163 21.1789C31.2385 19.155 31.702 16.0341 32.8299 15.8487C33.6487 15.7251 35.1782 15.617 36.4142 15.1844C36.8622 15.0299 37.2794 14.8136 37.6038 14.5509C38.7935 13.5467 39.9367 13.9793 41.3427 15.2616Z" fill="#3CBD0E"/>
<path d="M40.3689 26.8953C39.581 23.7744 38.7004 23.1873 37.9588 22.0286C37.0781 20.6381 36.9854 19.6184 37.5416 18.9078C38.1133 18.1971 39.5192 17.1465 42.2692 16.8838C42.64 16.6212 43.2426 13.624 46.6106 13.8403C49.9786 14.0566 52.3734 16.0959 52.9759 17.3319C53.5784 18.5679 53.254 21.7196 53.254 21.7196L53.8102 21.3488C53.8102 21.3488 55.0152 22.662 55.386 23.7435C55.7568 24.825 55.1234 26.8798 55.1234 26.8798L56.3285 27.6059V31.0203L53.7793 28.7338C53.7793 28.7338 54.1964 24.8713 54.011 24.0989C53.8256 23.3418 53.2385 22.5539 53.2385 22.5539C53.2385 22.5539 53.4394 24.3924 52.6978 25.0722C52.0335 24.4697 51.3073 24.0216 51.3073 24.0216C51.3073 24.0216 51.7863 21.8432 51.5236 20.8081C51.261 19.7884 50.5194 18.0271 50.5194 18.0271C50.5194 18.0271 50.3649 20.4682 50.0404 21.5033C49.7315 22.523 49.7005 26.679 48.7581 27.3742C48.65 26.0919 45.9463 22.4303 45.9463 22.4303C45.9463 22.4303 46.6879 19.8038 45.421 19.0623C44.1541 18.3207 40.2917 19.8656 40.2917 19.8656C40.2917 19.8656 41.7285 18.6142 45.0811 18.3207C43.5979 17.749 40.817 17.4555 39.3338 19.294C37.8506 21.1325 39.3647 22.7393 39.7509 23.3727C40.7397 24.964 40.3689 26.8953 40.3689 26.8953Z" fill="#3CBD0E"/>
<path d="M21.7057 51.8002L20.3307 50.0235L19.6354 49.39C19.9599 49.4364 20.3307 49.4673 20.7015 49.4827C18.5385 48.0304 17.2716 45.7593 17.2716 45.7593L15.0469 45.0332C15.5258 46.4391 16.1129 47.9223 17.6733 48.772V48.9265C17.7197 50.4097 18.7239 51.4139 20.0989 51.6457C20.2998 52.9744 20.9641 54.1176 21.7211 54.5039C21.3195 53.3297 21.7057 51.8002 21.7057 51.8002Z" fill="#145B12"/>
<path d="M29.1528 32.0091C29.3846 33.4305 29.6627 34.5738 30.4197 35.2844C31.1767 35.9951 33.7414 38.2044 34.174 38.5907C34.6066 38.9769 34.8383 41.2017 37.2948 41.1708C39.7513 41.1244 41.08 38.9769 41.08 38.9769C41.08 38.9769 39.7359 40.5991 38.1446 40.7536C36.5532 40.9081 35.5799 39.7031 35.2091 38.3126C33.9577 37.1539 32.1037 35.5471 31.7484 33.9712C31.393 32.3799 29.1528 32.0091 29.1528 32.0091Z" fill="#3CBD0E"/>
<path d="M23.2661 52.1555C23.8378 52.0783 24.7184 51.9238 25.6917 51.4912C25.6917 51.4912 27.0976 50.8886 30.4966 47.7369C30.3575 48.0923 29.8168 49.3437 28.9053 50.3479C28.6117 50.6878 28.3027 51.0277 27.8238 51.3676C27.4221 51.6611 27.1903 51.7538 27.2058 51.8156C27.2521 51.9392 28.3027 51.8774 29.2297 51.3521C29.9095 50.9659 30.3112 50.4561 30.6047 50.0698C31.2845 49.1737 31.5008 48.3703 31.5008 48.3703C31.4699 48.3549 30.4657 53.3761 27.2985 54.4884C27.0049 54.5966 25.5372 55.1064 24.3939 54.2876C23.4515 53.6232 23.297 52.4491 23.2661 52.1555Z" fill="#145B12"/>
<path d="M38.2678 56.0488V75.6854C37.9279 75.6854 37.588 75.6854 37.2635 75.67L36.9236 72.7963L36.6919 75.6545C36.6146 75.6545 36.5374 75.6545 36.4756 75.6391V58.1191L37.3717 62.306L38.2678 56.0488Z" fill="#3CBD0E"/>
<path d="M41.605 55.2918L42.8101 75.4228C42.4084 75.4691 42.0067 75.5155 41.605 75.5464V55.2918Z" fill="#145B12"/>
<path d="M43.9534 75.2528C43.6753 75.2992 43.3972 75.3301 43.1191 75.3764L43.8453 72.1011L43.9534 75.2528Z" fill="#145B12"/>
<path d="M46.9505 29.4908C46.8269 33.8167 42.7637 37.6173 42.7637 37.6173C42.7637 37.6173 44.973 36.2732 45.3901 35.7016C45.5137 36.7985 44.6794 37.1384 44.6794 37.1384C44.6794 37.1384 47.2904 35.578 48.0784 33.3378C48.8663 31.0821 46.9505 29.4908 46.9505 29.4908Z" fill="black"/>
<path d="M20.3774 46.8099C20.3774 46.8099 22.216 48.0305 23.2665 48.324C24.3171 48.6175 25.6921 48.8184 26.4492 48.324C27.2062 47.8296 28.5194 47.0417 28.3649 45.2959C28.3031 44.5388 22.9421 41.3253 22.9421 41.3253C22.9421 41.3253 22.3087 39.873 20.8718 38.807C21.2426 39.3632 22.0769 40.8 22.2314 41.5416C22.3241 42.0514 24.0081 43.4419 25.0278 44.2607C25.9393 44.9869 26.0166 46.3619 25.1514 47.1653C25.136 47.1807 25.1205 47.1962 25.1051 47.1962C23.7455 48.4321 20.3774 46.8099 20.3774 46.8099Z" fill="#145B12"/>
<path d="M43.4438 34.4656C42.5477 36.0878 42.625 36.953 42.625 36.953L38.2681 34.5119C38.2681 34.5119 38.0982 32.7507 38.5153 31.0358L43.4438 34.4656Z" fill="#145B12"/>
<path d="M46.1627 30.804C46.1627 30.8195 46.1472 30.8504 46.1318 30.8658L46.1163 30.8813L46.1009 30.8967L46.0854 30.9276L46.0391 30.974L45.9464 31.0821L45.7764 31.2984C45.6683 31.4529 45.5601 31.592 45.452 31.7465C45.2357 32.0555 45.0348 32.3645 44.8186 32.6734L44.2006 33.6159L43.6289 34.5583L43.6598 34.4502V34.512L43.6289 34.5583C43.4281 34.9446 43.2427 35.3308 43.0882 35.7325C43.0109 35.9333 42.9646 36.1342 42.9028 36.335C42.841 36.5359 42.7792 36.7367 42.671 36.9376L42.5938 37.0303L42.5629 37.0148L38.2215 34.5583L38.1906 34.5429V34.512C38.1288 34.2184 38.0979 33.9249 38.067 33.6313C38.0361 33.3378 38.0361 33.0442 38.0361 32.7507C38.0361 32.4572 38.067 32.1636 38.0979 31.8546C38.1288 31.5611 38.1906 31.2675 38.2524 30.974V30.9585L38.2679 30.9276C38.4842 30.4332 38.8241 29.9852 39.2258 29.6299C39.6275 29.2745 40.06 28.9655 40.5081 28.6874C40.9561 28.4093 41.4505 28.193 41.9604 28.0231C42.223 27.9458 42.4856 27.884 42.7483 27.8377C43.0264 27.8068 43.2736 27.7759 43.5826 27.7913H43.6907L43.7834 27.884C43.9997 28.1003 44.2006 28.3321 44.4014 28.5638C44.6023 28.7956 44.8031 29.0273 45.004 29.2591L45.2975 29.6144L45.5756 29.9852L45.8537 30.356L45.9927 30.5414L46.0545 30.6341L46.0854 30.6959C46.1318 30.7268 46.1472 30.7731 46.1627 30.804ZM45.9773 30.7886C45.9618 30.7886 45.9464 30.804 45.9464 30.8195C45.9464 30.8195 45.9155 30.804 45.9 30.7886L45.8073 30.7113L45.6374 30.5568L45.2975 30.2478L44.9576 29.9388L44.6177 29.6144C44.4014 29.3981 44.1851 29.1818 43.9688 28.9655C43.7525 28.7338 43.5362 28.5175 43.3354 28.3012L43.5362 28.3939C43.3199 28.3784 43.0573 28.363 42.8101 28.3784C42.5629 28.3784 42.3157 28.3939 42.0685 28.4248C41.5741 28.4866 41.0797 28.6102 40.6162 28.8419C40.3845 28.9655 40.1682 29.1046 39.9828 29.2591C39.7974 29.429 39.6275 29.6144 39.473 29.8153C39.1794 30.2324 38.9631 30.6804 38.7623 31.1285L38.7777 31.0821C38.7159 31.3602 38.6541 31.6383 38.6078 31.9164C38.5614 32.1945 38.5151 32.4726 38.4842 32.7661C38.4533 33.0442 38.4224 33.3378 38.4069 33.6313C38.376 33.9249 38.3606 34.203 38.3451 34.4965L38.3142 34.4502L42.671 36.8912L42.5629 36.9685C42.4547 36.7213 42.4547 36.4895 42.5011 36.2578C42.5474 36.026 42.6247 35.8097 42.6865 35.5934C42.841 35.1609 43.0418 34.7592 43.2581 34.3575L43.2272 34.4656V34.4038L43.2581 34.3575C43.459 34.033 43.6598 33.7086 43.8761 33.3841C44.0924 33.0751 44.3087 32.7661 44.5405 32.4726C44.7722 32.1636 45.004 31.8701 45.2357 31.5765C45.3593 31.4375 45.4829 31.283 45.6065 31.1439C45.6683 31.0667 45.7301 31.0049 45.8073 30.9276L45.9155 30.8195L45.9618 30.7731L45.9927 30.7422L46.0082 30.7268C46.0082 30.7268 46.0236 30.7113 46.0082 30.7268C45.9927 30.7577 45.9773 30.7886 45.9773 30.7886Z" fill="black"/>
<path d="M52.605 51.2749C47.1976 48.6948 47.0895 46.949 47.0895 46.949C47.0895 46.949 46.3633 48.4012 47.8619 50.178C49.3606 51.9547 52.605 51.2749 52.605 51.2749Z" fill="#3CBD0E"/>
<path d="M36.1206 19.0313C35.3327 21.0398 38.8861 23.2182 37.3257 24.7323C35.07 26.8798 33.7104 25.6593 30.5587 25.4584C27.407 25.2576 27.7777 27.3278 28.0558 28.9346C27.7623 28.9191 27.5151 28.7956 27.2834 28.6256C27.1752 24.9949 27.9168 23.2491 31.2385 23.28C34.6529 23.3109 33.7877 24.4696 35.1318 24.3924C36.4759 24.3151 33.216 21.1788 33.7568 19.1086C34.313 17.0383 35.2863 16.0032 37.0939 16.1886C38.1908 16.2967 39.0251 16.4667 39.5041 16.5903L38.9633 16.9765C38.9788 16.9611 36.9085 17.0229 36.1206 19.0313Z" fill="#00570E"/>
<path d="M44.664 32.5962L45.6064 31.3293L43.4744 29.2127L42.1611 30.5105L44.664 32.5962Z" fill="black"/>
<path d="M42.6249 36.953L38.2681 34.512L42.733 36.1651C42.6094 36.6904 42.6249 36.953 42.6249 36.953Z" fill="black"/>
<path d="M44.5562 47.3198C44.8342 50.008 45.9003 52.2328 48.5731 53.0516C49.2374 52.6499 49.2374 52.6499 49.2374 52.6499C49.2374 52.6499 46.3329 50.6414 45.5449 49.3437C44.8033 48.0768 44.5562 47.3198 44.5562 47.3198Z" fill="#145B12"/>
<path d="M20.1763 48.3394C23.6216 50.0544 25.8309 50.3479 27.8239 48.7102C27.2368 49.7917 26.418 50.7187 25.1202 51.1358C23.8224 51.553 20.1763 48.3394 20.1763 48.3394Z" fill="#145B12"/>
<path d="M36.4758 53.9786C33.6331 49.0501 34.9772 45.7439 34.9772 45.7439L36.4758 53.9786Z" fill="#005C11"/>
<path d="M50.0405 40.939C50.674 40.7691 51.2611 40.5373 51.8018 40.2129C52.3425 39.8884 52.8215 39.4868 53.2077 39.0078C53.6094 38.5289 53.9339 38.0036 54.1965 37.4319C54.4437 36.8603 54.6291 36.2423 54.7372 35.5934C54.8145 36.2423 54.7372 36.9221 54.5209 37.5555C54.3201 38.189 53.9956 38.7915 53.5476 39.3168C53.4395 39.4404 53.3313 39.5795 53.1923 39.6876C53.0687 39.7957 52.9451 39.9193 52.806 40.012C52.667 40.1202 52.5434 40.2129 52.3889 40.2901C52.2498 40.3828 52.0953 40.4601 51.9408 40.5219C51.3692 40.8154 50.7049 40.9545 50.0405 40.939Z" fill="#3D8C45"/>
<path d="M15.6963 42.6694C15.619 42.3913 15.619 42.0823 15.6808 41.8042C15.7426 41.5107 15.8508 41.2326 16.0207 40.9854C16.1906 40.7382 16.3915 40.5219 16.6387 40.3519C16.8859 40.182 17.164 40.0738 17.4575 40.0584C16.9477 40.321 16.5614 40.7073 16.2679 41.1553C16.1289 41.3716 16.0053 41.6188 15.8971 41.866C15.8199 42.1132 15.7426 42.3759 15.6963 42.6694Z" fill="#3D8C45"/>
<path d="M46.5337 16.8993L46.8581 17.2392C46.9663 17.3473 47.059 17.4709 47.1671 17.5945C47.2753 17.7181 47.3525 17.8417 47.4607 17.9653C47.5534 18.1044 47.6306 18.228 47.7079 18.3825C47.8624 18.6606 47.986 18.985 48.0323 19.3249C48.0632 19.4948 48.0632 19.6802 48.0323 19.8656L48.0014 20.0047L47.9551 20.1437C47.9396 20.1901 47.9242 20.2364 47.8933 20.2828C47.8624 20.3291 47.8469 20.3755 47.7851 20.4373L47.6615 19.8965C47.7388 19.9274 47.7851 19.9429 47.8469 19.9583C47.9087 19.9738 47.9551 20.0047 48.0169 20.0201C48.125 20.0665 48.2332 20.1283 48.3259 20.1746C48.5267 20.2828 48.7275 20.4064 48.9129 20.5609C49.2837 20.839 49.6082 21.1789 49.9017 21.5651C50.0253 21.7659 50.1798 21.9513 50.288 22.1522C50.3498 22.2603 50.4116 22.353 50.4579 22.4612L50.597 22.7856C50.6433 22.8938 50.6897 23.0019 50.7206 23.1101L50.8442 23.45C50.906 23.6663 50.9678 23.898 51.0296 24.1298L51.2304 24.8868L49.5773 25.1031L49.5155 24.3306C49.5 24.1452 49.4846 23.9598 49.4691 23.759L49.4228 23.4809C49.4073 23.3882 49.3919 23.2955 49.361 23.2028L49.2992 22.9247C49.2683 22.832 49.2374 22.7547 49.2065 22.662C49.1447 22.4766 49.0674 22.3221 48.9902 22.1367C48.8202 21.7968 48.604 21.4879 48.3568 21.2098C48.2332 21.0707 48.0941 20.9317 47.9396 20.8081C47.8624 20.7463 47.7851 20.6845 47.7079 20.6381C47.6615 20.6072 47.6306 20.5918 47.5843 20.5609C47.5534 20.53 47.507 20.5145 47.4761 20.4991L47.3525 19.9583C47.3525 19.9738 47.368 19.9429 47.3834 19.9274C47.3989 19.912 47.4143 19.8811 47.4298 19.8656L47.4761 19.7884L47.507 19.7111C47.5534 19.5875 47.5688 19.4639 47.5843 19.3249C47.5997 19.0468 47.5379 18.7687 47.4452 18.4752C47.3989 18.3361 47.3371 18.1971 47.2753 18.058C47.198 17.919 47.1517 17.7799 47.059 17.6563C46.9817 17.5327 46.9045 17.3937 46.8118 17.2546L46.5337 16.8993Z" fill="black"/>
<path d="M40.9404 30.1706L42.3309 31.1439L43.0725 30.3714L41.8056 29.2127L40.9404 30.1706Z" fill="white"/>
<path d="M19.6049 27.7295C19.2187 28.0849 17.0866 30.1088 16.7776 31.8237C16.4532 33.6468 14.1048 38.2199 13.9503 38.5289C14.043 38.3589 14.7846 37.0302 16.4686 36.7831C15.7579 37.1847 14.3675 37.8182 13.7186 39.2859C13.4096 39.9966 13.2242 40.5528 13.1315 40.939C13.116 40.6609 13.1006 40.3983 13.0851 40.1511C12.9924 38.9306 14.0739 37.71 15.2481 35.3617C16.4377 33.0133 16.5304 30.665 16.5304 30.665L18.9406 27.6677L19.6049 27.7295Z" fill="white"/>
<path d="M18.5698 33.724C19.5123 31.7001 21.1654 30.356 22.2469 30.0624C23.3438 29.7689 24.2399 29.8307 24.2399 29.8307C24.2399 29.8307 21.3044 29.568 19.9448 30.8813C18.5853 32.1945 18.5698 33.724 18.5698 33.724Z" fill="#EAF2EB"/>
<path d="M47.8159 38.6061C47.8623 36.335 48.3876 33.2914 52.4199 32.6116C48.264 34.0021 47.8159 38.6061 47.8159 38.6061Z" fill="#EAF2EB"/>
<path d="M23.2667 61.827L22.2315 60.6683V65.6586H21.7062L19.5278 70.0772C20.3621 67.7288 21.0574 65.674 21.1192 65.2105C21.2736 64.0054 21.5981 59.2624 22.0152 57.9028C22.1852 57.3621 22.4324 56.9604 22.6796 56.6668C22.695 60.0812 23.2667 61.827 23.2667 61.827Z" fill="#EAF2EB"/>
<path d="M36.4139 15.1998L35.9195 15.6015C35.9195 15.6015 33.8492 15.8642 32.9531 16.6058C32.057 17.3473 31.9334 19.8656 30.7747 21.1325C29.755 22.2449 27.2367 24.7632 25.7227 26.0455C25.7381 26.0146 25.7381 25.9837 25.7381 25.9683C25.7999 25.6284 28.0092 23.2337 29.6314 21.1943C31.2537 19.1704 31.7171 16.0496 32.845 15.8642C33.6484 15.7251 35.1779 15.6324 36.4139 15.1998Z" fill="#EAF2EB"/>
<path d="M63.2966 44.9096C63.173 45.4812 63.1421 46.0838 63.1267 46.6554C63.1112 47.8914 62.5087 48.8184 61.6898 49.5909C60.4539 50.7496 59.944 52.3873 58.8471 53.6232C58.6926 53.7932 58.7544 54.0249 58.7544 54.2412C58.8008 57.7638 58.7853 61.2863 58.9552 64.7934C59.017 66.122 59.4496 67.4044 59.944 68.6403C59.8668 68.7021 59.7741 68.7639 59.6968 68.8103C59.4651 68.1768 59.2797 67.528 59.0634 66.8945C58.569 65.3805 58.5845 63.8046 58.569 62.2287C58.5536 59.5868 58.4763 56.9449 58.43 54.3185C58.43 54.0249 58.3527 53.7159 58.569 53.4687C59.6505 52.1864 60.1912 50.5333 61.4581 49.3746C62.3233 48.5866 62.8177 47.5979 62.864 46.4391C62.9104 45.4503 63.0185 44.477 63.0803 43.4882C63.1576 42.2677 62.6323 41.3716 61.7362 40.7691C60.2221 39.7339 59.6814 38.2508 59.5887 36.5513C59.5423 35.6552 59.2333 35.0063 58.569 34.4965C58.1828 34.203 58.1364 33.8476 58.0746 33.415C57.7811 31.3602 57.7656 29.3054 57.7656 27.2351C57.7656 26.6944 57.3794 26.3545 57.0086 26.061C56.5914 25.7365 56.4524 25.4275 56.6223 24.9022C56.9468 23.7899 56.9313 22.7393 56.128 21.7505C55.4636 20.9162 55.4482 19.7729 55.2937 18.7996C54.8302 15.9105 53.4397 13.8248 50.7978 12.5579C50.4425 12.388 50.1026 12.1717 49.7472 11.9708C48.3413 11.1211 46.8736 10.9666 45.3132 11.461C44.2317 11.8163 43.0884 12.0326 42.0996 12.6506C41.8061 12.836 41.6052 12.7124 41.3889 12.5116C40.5547 11.7545 39.4886 11.6 38.4226 11.4919C37.4029 11.3837 36.7695 12.2489 35.9352 12.6197C34.5756 13.2223 33.2778 14.0102 31.6865 13.6548C31.3621 13.5776 31.1921 13.7784 31.0067 13.9793C30.018 15.0917 29.1991 16.2813 29.1373 17.8263C29.1064 18.367 28.7974 18.4443 28.3803 18.3207C27.9477 18.1971 27.5151 18.058 27.098 17.8881C26.5418 17.6563 25.9856 17.7645 25.6148 18.1662C24.3943 19.5103 22.8802 20.53 21.5979 21.7968C21.1962 22.1831 21.0108 22.662 20.949 23.2182C20.9181 23.5581 20.8408 23.898 20.7481 24.2379C20.3155 25.7056 20.0838 25.891 18.5543 25.8756C17.9826 25.8601 17.5346 25.9992 17.1329 26.4318C16.4068 27.2042 15.6652 27.9922 14.8772 28.7029C13.873 29.6144 13.5486 30.7268 13.7958 32.0091C13.8885 32.488 13.7803 32.9052 13.5949 33.3223C12.7452 35.3462 11.9263 37.401 10.814 39.3323C10.3814 40.0893 10.8294 40.9854 11.0148 41.8042C11.1693 42.5303 11.4629 43.2256 11.7101 43.9363C11.7719 44.1062 11.8337 44.3689 11.9572 44.4152C13.0387 44.8787 13.1005 45.9447 13.425 46.8254C13.7649 47.7678 14.3056 48.5248 15.2017 48.9883C15.5261 49.1583 15.5725 49.4209 15.557 49.7145C15.5107 51.2131 16.175 52.2019 17.6118 52.6345C17.9208 52.7271 17.9517 52.9125 17.9672 53.1597C18.029 54.0558 18.3534 54.7974 19.0487 55.3999C19.6512 55.9098 19.8366 56.5278 19.5585 57.3312C19.0796 58.6753 19.1568 60.1121 18.9405 61.5026C18.647 63.3874 18.4616 65.3032 18.0908 67.1726C17.9517 67.8679 17.6582 68.5167 17.3646 69.1811C17.2565 69.1193 17.1638 69.042 17.0711 68.9802C17.2874 68.424 17.5037 67.8679 17.72 67.3117C18.2453 65.9212 18.1371 64.3762 18.4616 62.924C18.8942 60.9309 18.7088 58.8298 19.3731 56.8677C19.5585 56.3424 19.2341 55.8634 18.8169 55.5544C18.0908 54.9828 17.7663 54.2412 17.6891 53.3606C17.6736 53.0979 17.6427 52.9434 17.3337 52.8507C15.9742 52.4182 15.3562 51.4139 15.2789 50.0389C15.2635 49.7145 15.2944 49.39 14.939 49.2046C13.7185 48.5557 13.2705 47.3815 12.8997 46.1765C12.7452 45.6512 12.5443 45.234 12.0808 44.8941C11.2311 44.2916 10.1651 40.3519 10.5204 39.3632C10.5977 39.1469 10.7522 38.946 10.8758 38.7452C11.9109 36.8758 12.6679 34.8827 13.5331 32.9361C13.6104 32.7507 13.7031 32.5035 13.6413 32.3181C13.0233 30.3869 14.1202 29.1355 15.3253 27.9149C15.8969 27.3433 16.4531 26.7871 17.0248 26.2155C17.411 25.8292 17.8745 25.5975 18.4461 25.582C20.0683 25.5511 20.4855 25.3039 20.6554 23.7126C20.8099 22.2603 21.5361 21.3179 22.6484 20.5454C23.4673 19.9892 24.2243 19.3712 24.8269 18.5679C25.6611 17.4555 26.7581 17.3473 27.9631 17.8572C28.5348 18.1044 28.782 18.1971 28.9519 17.3164C29.23 15.8487 29.9716 14.5355 31.1303 13.5158C31.2539 13.4077 31.393 13.3613 31.5629 13.3922C33.525 13.7166 35.1318 12.7742 36.7231 11.8627C38.2372 10.9975 40.1066 11.0902 41.5125 12.218C41.7752 12.4343 41.9606 12.4034 42.2232 12.2644C43.6291 11.5073 45.1741 11.1983 46.7036 10.8894C47.3834 10.7503 48.0787 10.8121 48.7275 11.1211C50.4579 11.8936 52.1574 12.7897 53.5479 14.0565C54.7838 15.1844 55.2164 16.7757 55.6027 18.3825C55.9271 19.7266 55.9735 21.1634 56.9004 22.3376C57.5493 23.141 57.1013 24.0988 56.9622 24.964C56.9004 25.3812 56.9468 25.5975 57.2712 25.8292C57.9356 26.2927 58.1828 26.957 58.1519 27.7604C58.1055 28.8574 58.121 29.9543 58.1519 31.0358C58.1673 31.9782 58.6308 32.8743 58.4763 33.8476C58.43 34.0948 58.739 34.2184 58.9244 34.3729C59.5423 34.9136 59.9131 35.5471 59.944 36.4432C59.9749 37.9418 60.3612 39.3168 61.6898 40.2592C63.2966 41.4334 63.7292 43.0247 63.2966 44.9096Z" fill="#878787"/>
<path d="M75.162 38.7915C75.162 51.0586 69.1675 61.9352 59.9595 68.6404C59.8822 68.7022 59.7895 68.764 59.7123 68.8103C59.1252 69.2429 58.5227 69.6446 57.9047 70.0308C56.8386 70.6952 55.7417 71.3132 54.6139 71.8693C51.3076 73.507 47.7233 74.6657 43.9381 75.2374C43.66 75.2837 43.3819 75.3146 43.1038 75.361C42.9957 75.3764 42.8876 75.3919 42.7794 75.4073C42.3777 75.4537 41.976 75.5 41.5743 75.5309C40.4774 75.6236 39.365 75.6854 38.2526 75.6854C37.9127 75.6854 37.5729 75.6854 37.2484 75.67C37.063 75.67 36.8622 75.6545 36.6768 75.6545C36.5995 75.6545 36.5223 75.6545 36.4605 75.6391C30.7441 75.361 25.3676 73.7851 20.64 71.205C20.2074 70.9733 19.7902 70.7261 19.3731 70.4789C18.6779 70.0617 17.9981 69.6291 17.3337 69.1657C17.2256 69.1039 17.1329 69.0266 17.0402 68.9648C7.56953 62.2905 1.38965 51.2594 1.38965 38.7915C1.38965 18.4288 17.9054 1.91309 38.2681 1.91309C58.6308 1.91309 75.162 18.4288 75.162 38.7915Z" stroke="#65BC47" stroke-width="2.40078" stroke-miterlimit="10"/>
</svg>
